# xmcd CD database file
#
# Track frame offsets:
#	150
#	30350
#	63947
#	85627
#	125470
#	157137
#	186262
#	214580
#
# Disc length: 3301 seconds
#
# Revision: 0
# Processed by: cddbd v1.5.2PL0 Copyright (c) Steve Scherf et al.
# Submitted via: CDex 1.51
#
DISCID=620ce308
DTITLE=Klas Lindquist - Lift off
DYEAR=2008
DGENRE=Jazz
TTITLE0=Simsalabim
TTITLE1=Suit for nonet-Coolin
TTITLE2=´Warm
TTITLE3=Hot
TTITLE4=Waltz now
TTITLE5=Buffy
TTITLE6=Sweet like you
TTITLE7=All systems go
EXTD=YEAR: 2008
EXTT0=
EXTT1=
EXTT2=
EXTT3=
EXTT4=
EXTT5=
EXTT6=
EXTT7=
PLAYORDER=
